<?xml version="1.0" encoding="utf-8"?>
<!-- Generator: Adobe Illustrator 17.0.0, SVG Export Plug-In . SVG Version: 6.00 Build 0)  -->
<!DOCTYPE svg PUBLIC "-//W3C//DTD SVG 1.1//EN" "http://www.w3.org/Graphics/SVG/1.1/DTD/svg11.dtd">
<svg version="1.1" id="Layer_1" xmlns="http://www.w3.org/2000/svg" xmlns:xlink="http://www.w3.org/1999/xlink" x="0px" y="0px"
	 width="106px" height="77.5px" viewBox="0 0 106 77.5" enable-background="new 0 0 106 77.5" xml:space="preserve">
<g id="Granada-Tile">
	<polygon fill="#00334C" points="104.7,75.9 99,75.9 99,74.6 102.7,74.6 102.7,72.7 99,72.7 99,71.7 104.7,71.7 104.7,69.8 
		97.1,69.8 97.1,77.5 104.7,77.5 	"/>
	<polygon fill="#00334C" points="95.8,75.9 91.2,75.9 91.2,69.8 89.3,69.8 89.3,77.5 95.8,77.5 	"/>
	<rect x="85.3" y="69.8" fill="#00334C" width="1.9" height="7.7"/>
	<polygon fill="#00334C" points="81.5,71.6 84,71.6 84,69.8 77.4,69.8 77.4,71.6 80,71.6 80,77.5 81.5,77.5 	"/>
	<path fill="#00334C" d="M29.5,77.5h2.1l-3.8-7.9h-2.6l-3.8,7.9h2.1l0.8-1.7h4.4L29.5,77.5z M25.2,73.9l1.3-2.6l1.2,2.6H25.2z"/>
	<path fill="#00334C" d="M51.6,77.5h2.1l-3.8-7.9h-2.6l-3.8,7.9h2.1l0.8-1.7h4.4L51.6,77.5z M47.3,73.9l1.3-2.6l1.2,2.6H47.3z"/>
	<path fill="#00334C" d="M72.7,77.5h2.1L71,69.6h-2.6l-3.8,7.9h2.1l0.8-1.7h4.4L72.7,77.5z M68.5,73.9l1.3-2.6l1.2,2.6H68.5z"/>
	<path fill="#00334C" d="M20.2,72.9v-0.7c0-0.9-0.6-2.4-2.4-2.4h-6.7v7.7h1.9v-2.3h3.4l1.4,2.3h2.2l-1.5-2.4
		C19.4,74.9,20.2,74.2,20.2,72.9z M13.1,71.7h4.7c0.5,0,0.5,0.3,0.5,0.5v0.7c0,0.5-0.3,0.5-0.5,0.5h-4.7V71.7z"/>
	<polygon fill="#00334C" points="3.5,74.6 3.5,72.8 9.2,72.8 9.2,77.5 0.2,77.5 0.2,69.8 9.2,69.8 9.2,71.3 1.9,71.3 1.9,76 7.5,76 
		7.5,74.6 	"/>
	<polygon fill="#00334C" points="40.2,75.5 35.8,69.6 32.8,69.6 32.8,77.5 34,77.5 34.7,77.5 34.7,71.5 39.3,77.5 42.1,77.5 
		42.1,69.6 40.2,69.6 	"/>
	<path fill="#00334C" d="M61.6,69.6H55v7.9l6.7,0c1,0,2.4-0.6,2.4-2.4V72C64.1,71.1,63.4,69.6,61.6,69.6z M62.1,75.1
		c0,0.5-0.3,0.5-0.5,0.5h-4.7v-4h4.8c0.5,0,0.5,0.3,0.5,0.5V75.1z"/>
	<polygon fill="#00334C" points="106,16.8 14.9,16.8 14.9,52.1 51.7,52.1 51.7,32.5 30.1,32.5 30.1,40.3 43.9,40.3 43.9,44.2 
		22.8,44.2 22.8,24.6 58.5,24.6 58.5,56.9 7.8,56.9 7.8,7.8 66.4,7.8 66.4,0 0,0 0,64.8 66.4,64.8 66.4,64.8 66.4,24.6 82.2,24.6 
		82.2,52.4 90.1,52.4 90.1,24.6 106,24.6 	"/>
</g>
<rect id="Rombo" x="82.5" y="56.7" transform="matrix(0.7071 -0.7071 0.7071 0.7071 -17.4988 78.7371)" fill="#EB2227" width="7.6" height="7.6"/>
</svg>
