<?xml version="1.0" encoding="utf-8"?>
<!-- Generator: Adobe Illustrator 17.0.0, SVG Export Plug-In . SVG Version: 6.00 Build 0)  -->
<!DOCTYPE svg PUBLIC "-//W3C//DTD SVG 1.1//EN" "http://www.w3.org/Graphics/SVG/1.1/DTD/svg11.dtd">
<svg version="1.1" id="Layer_1" xmlns="http://www.w3.org/2000/svg" xmlns:xlink="http://www.w3.org/1999/xlink" x="0px" y="0px"
	 width="20.9px" height="20.9px" viewBox="0 0 20.9 20.9" enable-background="new 0 0 20.9 20.9" xml:space="preserve">
<polygon fill="#595959" points="15.8,8.2 15.8,5 12.7,5 10.4,2.8 8.2,5 5,5 5,8.2 2.8,10.4 5,12.6 5,15.8 8.2,15.8 10.4,18.1 
	12.7,15.8 15.8,15.8 15.8,12.7 18.1,10.4 "/>
<path fill="#595959" d="M20.3,0H0.6H0v0.6v19.7v0.6h0.6h19.7h0.6v-0.6V0.6V0H20.3z M0.6,0.6h2.9v2.9H0.6V0.6z M20.3,20.3h-3v-3h-4
	l-2.9,2.9l-2.9-2.9H3.5v3H0.6v-3h2.9v-4.1l-2.9-2.9l2.9-2.9v-4h4l2.9-2.9l2.9,2.9h4.1v4.1l2.9,2.9l-2.9,2.9v4h3V20.3z M20.3,3.5h-3
	V0.6h3V3.5z"/>
<rect x="17.4" y="17.3" fill="#595959" width="0" height="0"/>
</svg>
